<svg width="155" height="24" viewBox="0 0 155 24" fill="none" xmlns="http://www.w3.org/2000/svg">
<path fill-rule="evenodd" clip-rule="evenodd" d="M26.7985 12.7656C27.1586 11.7473 27.3551 10.6474 27.3551 9.5C27.3551 4.25329 23.2462 0 18.1775 0C13.1089 0 9 4.25329 9 9.5C9 14.7467 13.1089 19 18.1775 19C20.2922 19 22.2398 18.2597 23.7917 17.0157L27.2752 18.1989C28.4305 18.5913 29.4348 17.2854 28.8063 16.2079L26.7985 12.7656Z" fill="#5CC9FA"/>
<g style="mix-blend-mode:multiply">
<path fill-rule="evenodd" clip-rule="evenodd" d="M4.29908 8C2.9459 8 1.84892 9.10528 1.84892 10.4687V19.3409L0.180991 22.1243C-0.406277 23.1043 0.532108 24.2921 1.61168 23.9351L6.87486 22.1951H16.5498C17.903 22.1951 19 21.0898 19 19.7264V10.4687C19 9.10528 17.903 8 16.5498 8H4.29908Z" fill="#8C1AF5"/>
</g>
<mask id="path-3-outside-1_3562_9496" maskUnits="userSpaceOnUse" x="38" y="3" width="117" height="20" fill="black">
<rect fill="white" x="38" y="3" width="117" height="20"/>
<path d="M44.7695 17.4083C43.7035 17.4083 42.7309 17.1465 41.8518 16.6227C40.9726 16.0873 40.2748 15.3482 39.7583 14.4054C39.2528 13.451 39 12.3802 39 11.193C39 10.0058 39.2528 8.94083 39.7583 7.99806C40.2748 7.04365 40.9726 6.30456 41.8518 5.7808C42.7309 5.24539 43.7035 4.97769 44.7695 4.97769C45.8464 4.97769 46.8245 5.24539 47.7037 5.7808C48.5828 6.30456 49.2751 7.03783 49.7807 7.9806C50.2862 8.92338 50.5389 9.99418 50.5389 11.193C50.5389 12.3919 50.2862 13.4627 49.7807 14.4054C49.2751 15.3482 48.5828 16.0873 47.7037 16.6227C46.8245 17.1465 45.8464 17.4083 44.7695 17.4083ZM44.7695 16.0291C45.5717 16.0291 46.2915 15.8312 46.9289 15.4355C47.5773 15.0398 48.0828 14.4753 48.4454 13.742C48.8191 13.0087 49.0059 12.1591 49.0059 11.193C49.0059 10.2153 48.8191 9.36566 48.4454 8.64403C48.0828 7.91077 47.5828 7.34627 46.9454 6.95053C46.308 6.5548 45.5827 6.35693 44.7695 6.35693C43.9562 6.35693 43.2309 6.5548 42.5936 6.95053C41.9562 7.34627 41.4506 7.91077 41.077 8.64403C40.7144 9.36566 40.533 10.2153 40.533 11.193C40.533 12.1591 40.7144 13.0087 41.077 13.742C41.4506 14.4753 41.9562 15.0398 42.5936 15.4355C43.2419 15.8312 43.9672 16.0291 44.7695 16.0291Z"/>
<path d="M54.0193 9.48206C54.316 8.93501 54.7556 8.48109 55.338 8.12027C55.9314 7.74782 56.6183 7.56159 57.3985 7.56159C58.2008 7.56159 58.9261 7.76528 59.5745 8.17265C60.2338 8.58002 60.7503 9.15616 61.124 9.90107C61.4976 10.6343 61.6844 11.4898 61.6844 12.4675C61.6844 13.4336 61.4976 14.2949 61.124 15.0514C60.7503 15.808 60.2338 16.3957 59.5745 16.8147C58.9261 17.2338 58.2008 17.4433 57.3985 17.4433C56.6293 17.4433 55.9479 17.2629 55.3545 16.902C54.7721 16.5296 54.327 16.0698 54.0193 15.5228V21.8254H52.5192V7.71872H54.0193V9.48206ZM60.1514 12.4675C60.1514 11.7459 60.014 11.1174 59.7393 10.582C59.4646 10.0466 59.0909 9.63919 58.6184 9.35985C58.1568 9.0805 57.6458 8.94083 57.0853 8.94083C56.5359 8.94083 56.0249 9.08632 55.5523 9.3773C55.0908 9.65664 54.7171 10.0698 54.4314 10.6169C54.1567 11.1523 54.0193 11.775 54.0193 12.485C54.0193 13.2066 54.1567 13.8409 54.4314 14.388C54.7171 14.9234 55.0908 15.3366 55.5523 15.6275C56.0249 15.9069 56.5359 16.0466 57.0853 16.0466C57.6458 16.0466 58.1568 15.9069 58.6184 15.6275C59.0909 15.3366 59.4646 14.9234 59.7393 14.388C60.014 13.8409 60.1514 13.2008 60.1514 12.4675Z"/>
<path d="M64.4337 6.16489C64.148 6.16489 63.9062 6.06014 63.7084 5.85063C63.5106 5.64113 63.4117 5.38506 63.4117 5.08244C63.4117 4.77983 63.5106 4.52376 63.7084 4.31426C63.9062 4.10475 64.148 4 64.4337 4C64.7084 4 64.9392 4.10475 65.126 4.31426C65.3238 4.52376 65.4227 4.77983 65.4227 5.08244C65.4227 5.38506 65.3238 5.64113 65.126 5.85063C64.9392 6.06014 64.7084 6.16489 64.4337 6.16489ZM65.159 7.71872V17.2861H63.6589V7.71872H65.159Z"/>
<path d="M72.1169 7.54413C73.2158 7.54413 74.106 7.89913 74.7873 8.60912C75.4686 9.30747 75.8093 10.3201 75.8093 11.6469V17.2861H74.3257V11.8739C74.3257 10.9195 74.1005 10.192 73.6499 9.69156C73.1993 9.17944 72.5839 8.92338 71.8037 8.92338C71.0124 8.92338 70.3805 9.18526 69.908 9.70902C69.4464 10.2328 69.2156 10.9952 69.2156 11.9961V17.2861H67.7156V7.71872H69.2156V9.0805C69.5124 8.59166 69.9135 8.21339 70.419 7.94568C70.9355 7.67798 71.5015 7.54413 72.1169 7.54413Z"/>
<path d="M79.0344 6.16489C78.7487 6.16489 78.5069 6.06014 78.3091 5.85063C78.1113 5.64113 78.0124 5.38506 78.0124 5.08244C78.0124 4.77983 78.1113 4.52376 78.3091 4.31426C78.5069 4.10475 78.7487 4 79.0344 4C79.3092 4 79.5399 4.10475 79.7268 4.31426C79.9246 4.52376 80.0235 4.77983 80.0235 5.08244C80.0235 5.38506 79.9246 5.64113 79.7268 5.85063C79.5399 6.06014 79.3092 6.16489 79.0344 6.16489ZM79.7597 7.71872V17.2861H78.2597V7.71872H79.7597Z"/>
<path d="M86.256 17.4433C85.4099 17.4433 84.6406 17.2396 83.9483 16.8322C83.2669 16.4248 82.7284 15.8487 82.3328 15.1038C81.9482 14.3472 81.7559 13.4743 81.7559 12.485C81.7559 11.5073 81.9537 10.646 82.3493 9.90107C82.7559 9.14452 83.3054 8.56838 83.9977 8.17265C84.69 7.76528 85.4648 7.56159 86.322 7.56159C87.1792 7.56159 87.9539 7.76528 88.6463 8.17265C89.3386 8.56838 89.8826 9.1387 90.2782 9.88361C90.6848 10.6285 90.8881 11.4956 90.8881 12.485C90.8881 13.4743 90.6793 14.3472 90.2617 15.1038C89.8551 15.8487 89.3001 16.4248 88.5968 16.8322C87.8935 17.2396 87.1132 17.4433 86.256 17.4433ZM86.256 16.0466C86.7945 16.0466 87.3 15.9127 87.7726 15.645C88.2451 15.3773 88.6243 14.9758 88.91 14.4403C89.2067 13.9049 89.3551 13.2532 89.3551 12.485C89.3551 11.7168 89.2122 11.065 88.9265 10.5296C88.6408 9.99418 88.2671 9.59845 87.8056 9.34239C87.344 9.07469 86.844 8.94083 86.3055 8.94083C85.756 8.94083 85.2505 9.07469 84.7889 9.34239C84.3384 9.59845 83.9757 9.99418 83.701 10.5296C83.4263 11.065 83.2889 11.7168 83.2889 12.485C83.2889 13.2648 83.4208 13.9224 83.6845 14.4578C83.9592 14.9932 84.3219 15.3948 84.7725 15.6625C85.223 15.9185 85.7176 16.0466 86.256 16.0466Z"/>
<path d="M97.2617 7.54413C98.3606 7.54413 99.2508 7.89913 99.9321 8.60912C100.613 9.30747 100.954 10.3201 100.954 11.6469V17.2861H99.4706V11.8739C99.4706 10.9195 99.2453 10.192 98.7947 9.69156C98.3442 9.17944 97.7287 8.92338 96.9485 8.92338C96.1572 8.92338 95.5254 9.18526 95.0528 9.70902C94.5913 10.2328 94.3605 10.9952 94.3605 11.9961V17.2861H92.8604V7.71872H94.3605V9.0805C94.6572 8.59166 95.0583 8.21339 95.5638 7.94568C96.0803 7.67798 96.6463 7.54413 97.2617 7.54413Z"/>
<path d="M111.442 17.4083C110.684 17.4083 110.003 17.2687 109.398 16.9893C108.805 16.6984 108.338 16.3026 107.997 15.8021C107.656 15.29 107.481 14.7022 107.47 14.0388H109.068C109.123 14.6091 109.343 15.0921 109.728 15.4879C110.123 15.872 110.695 16.064 111.442 16.064C112.157 16.064 112.717 15.8778 113.124 15.5053C113.541 15.1212 113.75 14.6324 113.75 14.0388C113.75 13.5732 113.629 13.195 113.387 12.904C113.146 12.613 112.843 12.3919 112.481 12.2405C112.118 12.0892 111.629 11.9263 111.014 11.7517C110.255 11.5422 109.645 11.3327 109.184 11.1232C108.733 10.9137 108.343 10.5878 108.013 10.1455C107.695 9.69156 107.535 9.08632 107.535 8.32978C107.535 7.66634 107.695 7.07856 108.013 6.56644C108.332 6.05432 108.777 5.65858 109.349 5.37924C109.931 5.0999 110.596 4.96023 111.343 4.96023C112.42 4.96023 113.299 5.24539 113.981 5.81571C114.673 6.38603 115.063 7.14258 115.151 8.08535H113.503C113.448 7.61979 113.217 7.21242 112.81 6.86324C112.404 6.50243 111.865 6.32202 111.195 6.32202C110.569 6.32202 110.058 6.49661 109.662 6.84578C109.266 7.18332 109.068 7.66052 109.068 8.2774C109.068 8.71969 109.184 9.0805 109.415 9.35985C109.656 9.63919 109.948 9.85451 110.288 10.0058C110.64 10.1455 111.129 10.3084 111.755 10.4947C112.514 10.7158 113.124 10.937 113.585 11.1581C114.047 11.3676 114.442 11.6993 114.772 12.1532C115.102 12.5955 115.267 13.2008 115.267 13.969C115.267 14.5626 115.118 15.1212 114.821 15.645C114.525 16.1688 114.085 16.5936 113.503 16.9195C112.92 17.2454 112.233 17.4083 111.442 17.4083Z"/>
<path d="M119.304 9.02813V14.6673C119.304 15.1329 119.397 15.4646 119.584 15.6625C119.771 15.8487 120.095 15.9418 120.557 15.9418H121.661V17.2861H120.309C119.474 17.2861 118.848 17.0824 118.43 16.6751C118.012 16.2677 117.804 15.5984 117.804 14.6673V9.02813H116.633V7.71872H117.804V5.30941H119.304V7.71872H121.661V9.02813H119.304Z"/>
<path d="M122.918 12.4675C122.918 11.4898 123.105 10.6343 123.479 9.90107C123.852 9.15616 124.363 8.58002 125.012 8.17265C125.671 7.76528 126.402 7.56159 127.204 7.56159C127.995 7.56159 128.682 7.742 129.264 8.10281C129.847 8.46363 130.281 8.91756 130.567 9.4646V7.71872H132.083V17.2861H130.567V15.5053C130.27 16.064 129.825 16.5296 129.231 16.902C128.649 17.2629 127.968 17.4433 127.187 17.4433C126.385 17.4433 125.66 17.2338 125.012 16.8147C124.363 16.3957 123.852 15.808 123.479 15.0514C123.105 14.2949 122.918 13.4336 122.918 12.4675ZM130.567 12.485C130.567 11.7633 130.429 11.1348 130.155 10.5994C129.88 10.064 129.506 9.65664 129.034 9.3773C128.572 9.08632 128.061 8.94083 127.501 8.94083C126.94 8.94083 126.429 9.0805 125.968 9.35985C125.506 9.63919 125.138 10.0466 124.863 10.582C124.588 11.1174 124.451 11.7459 124.451 12.4675C124.451 13.2008 124.588 13.8409 124.863 14.388C125.138 14.9234 125.506 15.3366 125.968 15.6275C126.429 15.9069 126.94 16.0466 127.501 16.0466C128.061 16.0466 128.572 15.9069 129.034 15.6275C129.506 15.3366 129.88 14.9234 130.155 14.388C130.429 13.8409 130.567 13.2066 130.567 12.485Z"/>
<path d="M138.344 7.56159C139.124 7.56159 139.805 7.742 140.388 8.10281C140.981 8.46363 141.421 8.91756 141.706 9.4646V7.71872H143.223V17.4956C143.223 18.3686 143.047 19.1426 142.695 19.8177C142.344 20.5044 141.838 21.0398 141.179 21.4239C140.531 21.808 139.772 22 138.904 22C137.717 22 136.728 21.7032 135.937 21.1096C135.146 20.516 134.679 19.7071 134.536 18.6828H136.019C136.184 19.2648 136.525 19.7304 137.041 20.0795C137.558 20.4403 138.179 20.6208 138.904 20.6208C139.728 20.6208 140.399 20.3472 140.915 19.8002C141.443 19.2532 141.706 18.485 141.706 17.4956V15.4879C141.41 16.0466 140.97 16.5121 140.388 16.8846C139.805 17.257 139.124 17.4433 138.344 17.4433C137.541 17.4433 136.811 17.2338 136.151 16.8147C135.503 16.3957 134.992 15.808 134.618 15.0514C134.245 14.2949 134.058 13.4336 134.058 12.4675C134.058 11.4898 134.245 10.6343 134.618 9.90107C134.992 9.15616 135.503 8.58002 136.151 8.17265C136.811 7.76528 137.541 7.56159 138.344 7.56159ZM141.706 12.485C141.706 11.7633 141.569 11.1348 141.294 10.5994C141.02 10.064 140.646 9.65664 140.173 9.3773C139.712 9.08632 139.201 8.94083 138.64 8.94083C138.08 8.94083 137.569 9.0805 137.107 9.35985C136.646 9.63919 136.278 10.0466 136.003 10.582C135.728 11.1174 135.591 11.7459 135.591 12.4675C135.591 13.2008 135.728 13.8409 136.003 14.388C136.278 14.9234 136.646 15.3366 137.107 15.6275C137.569 15.9069 138.08 16.0466 138.64 16.0466C139.201 16.0466 139.712 15.9069 140.173 15.6275C140.646 15.3366 141.02 14.9234 141.294 14.388C141.569 13.8409 141.706 13.2066 141.706 12.485Z"/>
<path d="M154 12.1358C154 12.4384 153.984 12.7585 153.951 13.096H146.73C146.785 14.0388 147.088 14.7779 147.637 15.3133C148.198 15.8371 148.873 16.0989 149.665 16.0989C150.313 16.0989 150.852 15.9418 151.28 15.6275C151.72 15.3016 152.027 14.871 152.203 14.3356H153.819C153.577 15.2551 153.093 16.0058 152.368 16.5878C151.643 17.1581 150.742 17.4433 149.665 17.4433C148.807 17.4433 148.038 17.2396 147.357 16.8322C146.687 16.4248 146.159 15.8487 145.774 15.1038C145.39 14.3472 145.197 13.4743 145.197 12.485C145.197 11.4956 145.384 10.6285 145.758 9.88361C146.132 9.1387 146.654 8.56838 147.324 8.17265C148.005 7.76528 148.786 7.56159 149.665 7.56159C150.522 7.56159 151.28 7.75946 151.939 8.15519C152.599 8.55092 153.104 9.09796 153.456 9.79631C153.819 10.483 154 11.2629 154 12.1358ZM152.45 11.8041C152.45 11.1988 152.324 10.6809 152.071 10.2502C151.819 9.80795 151.472 9.47624 151.033 9.25509C150.604 9.02231 150.126 8.90592 149.599 8.90592C148.84 8.90592 148.192 9.16198 147.654 9.6741C147.126 10.1862 146.824 10.8962 146.747 11.8041H152.45Z"/>
</mask>
<path d="M44.7695 17.4083C43.7035 17.4083 42.7309 17.1465 41.8518 16.6227C40.9726 16.0873 40.2748 15.3482 39.7583 14.4054C39.2528 13.451 39 12.3802 39 11.193C39 10.0058 39.2528 8.94083 39.7583 7.99806C40.2748 7.04365 40.9726 6.30456 41.8518 5.7808C42.7309 5.24539 43.7035 4.97769 44.7695 4.97769C45.8464 4.97769 46.8245 5.24539 47.7037 5.7808C48.5828 6.30456 49.2751 7.03783 49.7807 7.9806C50.2862 8.92338 50.5389 9.99418 50.5389 11.193C50.5389 12.3919 50.2862 13.4627 49.7807 14.4054C49.2751 15.3482 48.5828 16.0873 47.7037 16.6227C46.8245 17.1465 45.8464 17.4083 44.7695 17.4083ZM44.7695 16.0291C45.5717 16.0291 46.2915 15.8312 46.9289 15.4355C47.5773 15.0398 48.0828 14.4753 48.4454 13.742C48.8191 13.0087 49.0059 12.1591 49.0059 11.193C49.0059 10.2153 48.8191 9.36566 48.4454 8.64403C48.0828 7.91077 47.5828 7.34627 46.9454 6.95053C46.308 6.5548 45.5827 6.35693 44.7695 6.35693C43.9562 6.35693 43.2309 6.5548 42.5936 6.95053C41.9562 7.34627 41.4506 7.91077 41.077 8.64403C40.7144 9.36566 40.533 10.2153 40.533 11.193C40.533 12.1591 40.7144 13.0087 41.077 13.742C41.4506 14.4753 41.9562 15.0398 42.5936 15.4355C43.2419 15.8312 43.9672 16.0291 44.7695 16.0291Z" fill="black"/>
<path d="M54.0193 9.48206C54.316 8.93501 54.7556 8.48109 55.338 8.12027C55.9314 7.74782 56.6183 7.56159 57.3985 7.56159C58.2008 7.56159 58.9261 7.76528 59.5745 8.17265C60.2338 8.58002 60.7503 9.15616 61.124 9.90107C61.4976 10.6343 61.6844 11.4898 61.6844 12.4675C61.6844 13.4336 61.4976 14.2949 61.124 15.0514C60.7503 15.808 60.2338 16.3957 59.5745 16.8147C58.9261 17.2338 58.2008 17.4433 57.3985 17.4433C56.6293 17.4433 55.9479 17.2629 55.3545 16.902C54.7721 16.5296 54.327 16.0698 54.0193 15.5228V21.8254H52.5192V7.71872H54.0193V9.48206ZM60.1514 12.4675C60.1514 11.7459 60.014 11.1174 59.7393 10.582C59.4646 10.0466 59.0909 9.63919 58.6184 9.35985C58.1568 9.0805 57.6458 8.94083 57.0853 8.94083C56.5359 8.94083 56.0249 9.08632 55.5523 9.3773C55.0908 9.65664 54.7171 10.0698 54.4314 10.6169C54.1567 11.1523 54.0193 11.775 54.0193 12.485C54.0193 13.2066 54.1567 13.8409 54.4314 14.388C54.7171 14.9234 55.0908 15.3366 55.5523 15.6275C56.0249 15.9069 56.5359 16.0466 57.0853 16.0466C57.6458 16.0466 58.1568 15.9069 58.6184 15.6275C59.0909 15.3366 59.4646 14.9234 59.7393 14.388C60.014 13.8409 60.1514 13.2008 60.1514 12.4675Z" fill="black"/>
<path d="M64.4337 6.16489C64.148 6.16489 63.9062 6.06014 63.7084 5.85063C63.5106 5.64113 63.4117 5.38506 63.4117 5.08244C63.4117 4.77983 63.5106 4.52376 63.7084 4.31426C63.9062 4.10475 64.148 4 64.4337 4C64.7084 4 64.9392 4.10475 65.126 4.31426C65.3238 4.52376 65.4227 4.77983 65.4227 5.08244C65.4227 5.38506 65.3238 5.64113 65.126 5.85063C64.9392 6.06014 64.7084 6.16489 64.4337 6.16489ZM65.159 7.71872V17.2861H63.6589V7.71872H65.159Z" fill="black"/>
<path d="M72.1169 7.54413C73.2158 7.54413 74.106 7.89913 74.7873 8.60912C75.4686 9.30747 75.8093 10.3201 75.8093 11.6469V17.2861H74.3257V11.8739C74.3257 10.9195 74.1005 10.192 73.6499 9.69156C73.1993 9.17944 72.5839 8.92338 71.8037 8.92338C71.0124 8.92338 70.3805 9.18526 69.908 9.70902C69.4464 10.2328 69.2156 10.9952 69.2156 11.9961V17.2861H67.7156V7.71872H69.2156V9.0805C69.5124 8.59166 69.9135 8.21339 70.419 7.94568C70.9355 7.67798 71.5015 7.54413 72.1169 7.54413Z" fill="black"/>
<path d="M79.0344 6.16489C78.7487 6.16489 78.5069 6.06014 78.3091 5.85063C78.1113 5.64113 78.0124 5.38506 78.0124 5.08244C78.0124 4.77983 78.1113 4.52376 78.3091 4.31426C78.5069 4.10475 78.7487 4 79.0344 4C79.3092 4 79.5399 4.10475 79.7268 4.31426C79.9246 4.52376 80.0235 4.77983 80.0235 5.08244C80.0235 5.38506 79.9246 5.64113 79.7268 5.85063C79.5399 6.06014 79.3092 6.16489 79.0344 6.16489ZM79.7597 7.71872V17.2861H78.2597V7.71872H79.7597Z" fill="black"/>
<path d="M86.256 17.4433C85.4099 17.4433 84.6406 17.2396 83.9483 16.8322C83.2669 16.4248 82.7284 15.8487 82.3328 15.1038C81.9482 14.3472 81.7559 13.4743 81.7559 12.485C81.7559 11.5073 81.9537 10.646 82.3493 9.90107C82.7559 9.14452 83.3054 8.56838 83.9977 8.17265C84.69 7.76528 85.4648 7.56159 86.322 7.56159C87.1792 7.56159 87.9539 7.76528 88.6463 8.17265C89.3386 8.56838 89.8826 9.1387 90.2782 9.88361C90.6848 10.6285 90.8881 11.4956 90.8881 12.485C90.8881 13.4743 90.6793 14.3472 90.2617 15.1038C89.8551 15.8487 89.3001 16.4248 88.5968 16.8322C87.8935 17.2396 87.1132 17.4433 86.256 17.4433ZM86.256 16.0466C86.7945 16.0466 87.3 15.9127 87.7726 15.645C88.2451 15.3773 88.6243 14.9758 88.91 14.4403C89.2067 13.9049 89.3551 13.2532 89.3551 12.485C89.3551 11.7168 89.2122 11.065 88.9265 10.5296C88.6408 9.99418 88.2671 9.59845 87.8056 9.34239C87.344 9.07469 86.844 8.94083 86.3055 8.94083C85.756 8.94083 85.2505 9.07469 84.7889 9.34239C84.3384 9.59845 83.9757 9.99418 83.701 10.5296C83.4263 11.065 83.2889 11.7168 83.2889 12.485C83.2889 13.2648 83.4208 13.9224 83.6845 14.4578C83.9592 14.9932 84.3219 15.3948 84.7725 15.6625C85.223 15.9185 85.7176 16.0466 86.256 16.0466Z" fill="black"/>
<path d="M97.2617 7.54413C98.3606 7.54413 99.2508 7.89913 99.9321 8.60912C100.613 9.30747 100.954 10.3201 100.954 11.6469V17.2861H99.4706V11.8739C99.4706 10.9195 99.2453 10.192 98.7947 9.69156C98.3442 9.17944 97.7287 8.92338 96.9485 8.92338C96.1572 8.92338 95.5254 9.18526 95.0528 9.70902C94.5913 10.2328 94.3605 10.9952 94.3605 11.9961V17.2861H92.8604V7.71872H94.3605V9.0805C94.6572 8.59166 95.0583 8.21339 95.5638 7.94568C96.0803 7.67798 96.6463 7.54413 97.2617 7.54413Z" fill="black"/>
<path d="M111.442 17.4083C110.684 17.4083 110.003 17.2687 109.398 16.9893C108.805 16.6984 108.338 16.3026 107.997 15.8021C107.656 15.29 107.481 14.7022 107.47 14.0388H109.068C109.123 14.6091 109.343 15.0921 109.728 15.4879C110.123 15.872 110.695 16.064 111.442 16.064C112.157 16.064 112.717 15.8778 113.124 15.5053C113.541 15.1212 113.75 14.6324 113.75 14.0388C113.75 13.5732 113.629 13.195 113.387 12.904C113.146 12.613 112.843 12.3919 112.481 12.2405C112.118 12.0892 111.629 11.9263 111.014 11.7517C110.255 11.5422 109.645 11.3327 109.184 11.1232C108.733 10.9137 108.343 10.5878 108.013 10.1455C107.695 9.69156 107.535 9.08632 107.535 8.32978C107.535 7.66634 107.695 7.07856 108.013 6.56644C108.332 6.05432 108.777 5.65858 109.349 5.37924C109.931 5.0999 110.596 4.96023 111.343 4.96023C112.42 4.96023 113.299 5.24539 113.981 5.81571C114.673 6.38603 115.063 7.14258 115.151 8.08535H113.503C113.448 7.61979 113.217 7.21242 112.81 6.86324C112.404 6.50243 111.865 6.32202 111.195 6.32202C110.569 6.32202 110.058 6.49661 109.662 6.84578C109.266 7.18332 109.068 7.66052 109.068 8.2774C109.068 8.71969 109.184 9.0805 109.415 9.35985C109.656 9.63919 109.948 9.85451 110.288 10.0058C110.64 10.1455 111.129 10.3084 111.755 10.4947C112.514 10.7158 113.124 10.937 113.585 11.1581C114.047 11.3676 114.442 11.6993 114.772 12.1532C115.102 12.5955 115.267 13.2008 115.267 13.969C115.267 14.5626 115.118 15.1212 114.821 15.645C114.525 16.1688 114.085 16.5936 113.503 16.9195C112.92 17.2454 112.233 17.4083 111.442 17.4083Z" fill="black"/>
<path d="M119.304 9.02813V14.6673C119.304 15.1329 119.397 15.4646 119.584 15.6625C119.771 15.8487 120.095 15.9418 120.557 15.9418H121.661V17.2861H120.309C119.474 17.2861 118.848 17.0824 118.43 16.6751C118.012 16.2677 117.804 15.5984 117.804 14.6673V9.02813H116.633V7.71872H117.804V5.30941H119.304V7.71872H121.661V9.02813H119.304Z" fill="black"/>
<path d="M122.918 12.4675C122.918 11.4898 123.105 10.6343 123.479 9.90107C123.852 9.15616 124.363 8.58002 125.012 8.17265C125.671 7.76528 126.402 7.56159 127.204 7.56159C127.995 7.56159 128.682 7.742 129.264 8.10281C129.847 8.46363 130.281 8.91756 130.567 9.4646V7.71872H132.083V17.2861H130.567V15.5053C130.27 16.064 129.825 16.5296 129.231 16.902C128.649 17.2629 127.968 17.4433 127.187 17.4433C126.385 17.4433 125.66 17.2338 125.012 16.8147C124.363 16.3957 123.852 15.808 123.479 15.0514C123.105 14.2949 122.918 13.4336 122.918 12.4675ZM130.567 12.485C130.567 11.7633 130.429 11.1348 130.155 10.5994C129.88 10.064 129.506 9.65664 129.034 9.3773C128.572 9.08632 128.061 8.94083 127.501 8.94083C126.94 8.94083 126.429 9.0805 125.968 9.35985C125.506 9.63919 125.138 10.0466 124.863 10.582C124.588 11.1174 124.451 11.7459 124.451 12.4675C124.451 13.2008 124.588 13.8409 124.863 14.388C125.138 14.9234 125.506 15.3366 125.968 15.6275C126.429 15.9069 126.94 16.0466 127.501 16.0466C128.061 16.0466 128.572 15.9069 129.034 15.6275C129.506 15.3366 129.88 14.9234 130.155 14.388C130.429 13.8409 130.567 13.2066 130.567 12.485Z" fill="black"/>
<path d="M138.344 7.56159C139.124 7.56159 139.805 7.742 140.388 8.10281C140.981 8.46363 141.421 8.91756 141.706 9.4646V7.71872H143.223V17.4956C143.223 18.3686 143.047 19.1426 142.695 19.8177C142.344 20.5044 141.838 21.0398 141.179 21.4239C140.531 21.808 139.772 22 138.904 22C137.717 22 136.728 21.7032 135.937 21.1096C135.146 20.516 134.679 19.7071 134.536 18.6828H136.019C136.184 19.2648 136.525 19.7304 137.041 20.0795C137.558 20.4403 138.179 20.6208 138.904 20.6208C139.728 20.6208 140.399 20.3472 140.915 19.8002C141.443 19.2532 141.706 18.485 141.706 17.4956V15.4879C141.41 16.0466 140.97 16.5121 140.388 16.8846C139.805 17.257 139.124 17.4433 138.344 17.4433C137.541 17.4433 136.811 17.2338 136.151 16.8147C135.503 16.3957 134.992 15.808 134.618 15.0514C134.245 14.2949 134.058 13.4336 134.058 12.4675C134.058 11.4898 134.245 10.6343 134.618 9.90107C134.992 9.15616 135.503 8.58002 136.151 8.17265C136.811 7.76528 137.541 7.56159 138.344 7.56159ZM141.706 12.485C141.706 11.7633 141.569 11.1348 141.294 10.5994C141.02 10.064 140.646 9.65664 140.173 9.3773C139.712 9.08632 139.201 8.94083 138.64 8.94083C138.08 8.94083 137.569 9.0805 137.107 9.35985C136.646 9.63919 136.278 10.0466 136.003 10.582C135.728 11.1174 135.591 11.7459 135.591 12.4675C135.591 13.2008 135.728 13.8409 136.003 14.388C136.278 14.9234 136.646 15.3366 137.107 15.6275C137.569 15.9069 138.08 16.0466 138.64 16.0466C139.201 16.0466 139.712 15.9069 140.173 15.6275C140.646 15.3366 141.02 14.9234 141.294 14.388C141.569 13.8409 141.706 13.2066 141.706 12.485Z" fill="black"/>
<path d="M154 12.1358C154 12.4384 153.984 12.7585 153.951 13.096H146.73C146.785 14.0388 147.088 14.7779 147.637 15.3133C148.198 15.8371 148.873 16.0989 149.665 16.0989C150.313 16.0989 150.852 15.9418 151.28 15.6275C151.72 15.3016 152.027 14.871 152.203 14.3356H153.819C153.577 15.2551 153.093 16.0058 152.368 16.5878C151.643 17.1581 150.742 17.4433 149.665 17.4433C148.807 17.4433 148.038 17.2396 147.357 16.8322C146.687 16.4248 146.159 15.8487 145.774 15.1038C145.39 14.3472 145.197 13.4743 145.197 12.485C145.197 11.4956 145.384 10.6285 145.758 9.88361C146.132 9.1387 146.654 8.56838 147.324 8.17265C148.005 7.76528 148.786 7.56159 149.665 7.56159C150.522 7.56159 151.28 7.75946 151.939 8.15519C152.599 8.55092 153.104 9.09796 153.456 9.79631C153.819 10.483 154 11.2629 154 12.1358ZM152.45 11.8041C152.45 11.1988 152.324 10.6809 152.071 10.2502C151.819 9.80795 151.472 9.47624 151.033 9.25509C150.604 9.02231 150.126 8.90592 149.599 8.90592C148.84 8.90592 148.192 9.16198 147.654 9.6741C147.126 10.1862 146.824 10.8962 146.747 11.8041H152.45Z" fill="black"/>
<path d="M44.7695 17.4083C43.7035 17.4083 42.7309 17.1465 41.8518 16.6227C40.9726 16.0873 40.2748 15.3482 39.7583 14.4054C39.2528 13.451 39 12.3802 39 11.193C39 10.0058 39.2528 8.94083 39.7583 7.99806C40.2748 7.04365 40.9726 6.30456 41.8518 5.7808C42.7309 5.24539 43.7035 4.97769 44.7695 4.97769C45.8464 4.97769 46.8245 5.24539 47.7037 5.7808C48.5828 6.30456 49.2751 7.03783 49.7807 7.9806C50.2862 8.92338 50.5389 9.99418 50.5389 11.193C50.5389 12.3919 50.2862 13.4627 49.7807 14.4054C49.2751 15.3482 48.5828 16.0873 47.7037 16.6227C46.8245 17.1465 45.8464 17.4083 44.7695 17.4083ZM44.7695 16.0291C45.5717 16.0291 46.2915 15.8312 46.9289 15.4355C47.5773 15.0398 48.0828 14.4753 48.4454 13.742C48.8191 13.0087 49.0059 12.1591 49.0059 11.193C49.0059 10.2153 48.8191 9.36566 48.4454 8.64403C48.0828 7.91077 47.5828 7.34627 46.9454 6.95053C46.308 6.5548 45.5827 6.35693 44.7695 6.35693C43.9562 6.35693 43.2309 6.5548 42.5936 6.95053C41.9562 7.34627 41.4506 7.91077 41.077 8.64403C40.7144 9.36566 40.533 10.2153 40.533 11.193C40.533 12.1591 40.7144 13.0087 41.077 13.742C41.4506 14.4753 41.9562 15.0398 42.5936 15.4355C43.2419 15.8312 43.9672 16.0291 44.7695 16.0291Z" stroke="black" stroke-width="0.4" mask="url(#path-3-outside-1_3562_9496)"/>
<path d="M54.0193 9.48206C54.316 8.93501 54.7556 8.48109 55.338 8.12027C55.9314 7.74782 56.6183 7.56159 57.3985 7.56159C58.2008 7.56159 58.9261 7.76528 59.5745 8.17265C60.2338 8.58002 60.7503 9.15616 61.124 9.90107C61.4976 10.6343 61.6844 11.4898 61.6844 12.4675C61.6844 13.4336 61.4976 14.2949 61.124 15.0514C60.7503 15.808 60.2338 16.3957 59.5745 16.8147C58.9261 17.2338 58.2008 17.4433 57.3985 17.4433C56.6293 17.4433 55.9479 17.2629 55.3545 16.902C54.7721 16.5296 54.327 16.0698 54.0193 15.5228V21.8254H52.5192V7.71872H54.0193V9.48206ZM60.1514 12.4675C60.1514 11.7459 60.014 11.1174 59.7393 10.582C59.4646 10.0466 59.0909 9.63919 58.6184 9.35985C58.1568 9.0805 57.6458 8.94083 57.0853 8.94083C56.5359 8.94083 56.0249 9.08632 55.5523 9.3773C55.0908 9.65664 54.7171 10.0698 54.4314 10.6169C54.1567 11.1523 54.0193 11.775 54.0193 12.485C54.0193 13.2066 54.1567 13.8409 54.4314 14.388C54.7171 14.9234 55.0908 15.3366 55.5523 15.6275C56.0249 15.9069 56.5359 16.0466 57.0853 16.0466C57.6458 16.0466 58.1568 15.9069 58.6184 15.6275C59.0909 15.3366 59.4646 14.9234 59.7393 14.388C60.014 13.8409 60.1514 13.2008 60.1514 12.4675Z" stroke="black" stroke-width="0.4" mask="url(#path-3-outside-1_3562_9496)"/>
<path d="M64.4337 6.16489C64.148 6.16489 63.9062 6.06014 63.7084 5.85063C63.5106 5.64113 63.4117 5.38506 63.4117 5.08244C63.4117 4.77983 63.5106 4.52376 63.7084 4.31426C63.9062 4.10475 64.148 4 64.4337 4C64.7084 4 64.9392 4.10475 65.126 4.31426C65.3238 4.52376 65.4227 4.77983 65.4227 5.08244C65.4227 5.38506 65.3238 5.64113 65.126 5.85063C64.9392 6.06014 64.7084 6.16489 64.4337 6.16489ZM65.159 7.71872V17.2861H63.6589V7.71872H65.159Z" stroke="black" stroke-width="0.4" mask="url(#path-3-outside-1_3562_9496)"/>
<path d="M72.1169 7.54413C73.2158 7.54413 74.106 7.89913 74.7873 8.60912C75.4686 9.30747 75.8093 10.3201 75.8093 11.6469V17.2861H74.3257V11.8739C74.3257 10.9195 74.1005 10.192 73.6499 9.69156C73.1993 9.17944 72.5839 8.92338 71.8037 8.92338C71.0124 8.92338 70.3805 9.18526 69.908 9.70902C69.4464 10.2328 69.2156 10.9952 69.2156 11.9961V17.2861H67.7156V7.71872H69.2156V9.0805C69.5124 8.59166 69.9135 8.21339 70.419 7.94568C70.9355 7.67798 71.5015 7.54413 72.1169 7.54413Z" stroke="black" stroke-width="0.4" mask="url(#path-3-outside-1_3562_9496)"/>
<path d="M79.0344 6.16489C78.7487 6.16489 78.5069 6.06014 78.3091 5.85063C78.1113 5.64113 78.0124 5.38506 78.0124 5.08244C78.0124 4.77983 78.1113 4.52376 78.3091 4.31426C78.5069 4.10475 78.7487 4 79.0344 4C79.3092 4 79.5399 4.10475 79.7268 4.31426C79.9246 4.52376 80.0235 4.77983 80.0235 5.08244C80.0235 5.38506 79.9246 5.64113 79.7268 5.85063C79.5399 6.06014 79.3092 6.16489 79.0344 6.16489ZM79.7597 7.71872V17.2861H78.2597V7.71872H79.7597Z" stroke="black" stroke-width="0.4" mask="url(#path-3-outside-1_3562_9496)"/>
<path d="M86.256 17.4433C85.4099 17.4433 84.6406 17.2396 83.9483 16.8322C83.2669 16.4248 82.7284 15.8487 82.3328 15.1038C81.9482 14.3472 81.7559 13.4743 81.7559 12.485C81.7559 11.5073 81.9537 10.646 82.3493 9.90107C82.7559 9.14452 83.3054 8.56838 83.9977 8.17265C84.69 7.76528 85.4648 7.56159 86.322 7.56159C87.1792 7.56159 87.9539 7.76528 88.6463 8.17265C89.3386 8.56838 89.8826 9.1387 90.2782 9.88361C90.6848 10.6285 90.8881 11.4956 90.8881 12.485C90.8881 13.4743 90.6793 14.3472 90.2617 15.1038C89.8551 15.8487 89.3001 16.4248 88.5968 16.8322C87.8935 17.2396 87.1132 17.4433 86.256 17.4433ZM86.256 16.0466C86.7945 16.0466 87.3 15.9127 87.7726 15.645C88.2451 15.3773 88.6243 14.9758 88.91 14.4403C89.2067 13.9049 89.3551 13.2532 89.3551 12.485C89.3551 11.7168 89.2122 11.065 88.9265 10.5296C88.6408 9.99418 88.2671 9.59845 87.8056 9.34239C87.344 9.07469 86.844 8.94083 86.3055 8.94083C85.756 8.94083 85.2505 9.07469 84.7889 9.34239C84.3384 9.59845 83.9757 9.99418 83.701 10.5296C83.4263 11.065 83.2889 11.7168 83.2889 12.485C83.2889 13.2648 83.4208 13.9224 83.6845 14.4578C83.9592 14.9932 84.3219 15.3948 84.7725 15.6625C85.223 15.9185 85.7176 16.0466 86.256 16.0466Z" stroke="black" stroke-width="0.4" mask="url(#path-3-outside-1_3562_9496)"/>
<path d="M97.2617 7.54413C98.3606 7.54413 99.2508 7.89913 99.9321 8.60912C100.613 9.30747 100.954 10.3201 100.954 11.6469V17.2861H99.4706V11.8739C99.4706 10.9195 99.2453 10.192 98.7947 9.69156C98.3442 9.17944 97.7287 8.92338 96.9485 8.92338C96.1572 8.92338 95.5254 9.18526 95.0528 9.70902C94.5913 10.2328 94.3605 10.9952 94.3605 11.9961V17.2861H92.8604V7.71872H94.3605V9.0805C94.6572 8.59166 95.0583 8.21339 95.5638 7.94568C96.0803 7.67798 96.6463 7.54413 97.2617 7.54413Z" stroke="black" stroke-width="0.4" mask="url(#path-3-outside-1_3562_9496)"/>
<path d="M111.442 17.4083C110.684 17.4083 110.003 17.2687 109.398 16.9893C108.805 16.6984 108.338 16.3026 107.997 15.8021C107.656 15.29 107.481 14.7022 107.47 14.0388H109.068C109.123 14.6091 109.343 15.0921 109.728 15.4879C110.123 15.872 110.695 16.064 111.442 16.064C112.157 16.064 112.717 15.8778 113.124 15.5053C113.541 15.1212 113.75 14.6324 113.75 14.0388C113.75 13.5732 113.629 13.195 113.387 12.904C113.146 12.613 112.843 12.3919 112.481 12.2405C112.118 12.0892 111.629 11.9263 111.014 11.7517C110.255 11.5422 109.645 11.3327 109.184 11.1232C108.733 10.9137 108.343 10.5878 108.013 10.1455C107.695 9.69156 107.535 9.08632 107.535 8.32978C107.535 7.66634 107.695 7.07856 108.013 6.56644C108.332 6.05432 108.777 5.65858 109.349 5.37924C109.931 5.0999 110.596 4.96023 111.343 4.96023C112.42 4.96023 113.299 5.24539 113.981 5.81571C114.673 6.38603 115.063 7.14258 115.151 8.08535H113.503C113.448 7.61979 113.217 7.21242 112.81 6.86324C112.404 6.50243 111.865 6.32202 111.195 6.32202C110.569 6.32202 110.058 6.49661 109.662 6.84578C109.266 7.18332 109.068 7.66052 109.068 8.2774C109.068 8.71969 109.184 9.0805 109.415 9.35985C109.656 9.63919 109.948 9.85451 110.288 10.0058C110.64 10.1455 111.129 10.3084 111.755 10.4947C112.514 10.7158 113.124 10.937 113.585 11.1581C114.047 11.3676 114.442 11.6993 114.772 12.1532C115.102 12.5955 115.267 13.2008 115.267 13.969C115.267 14.5626 115.118 15.1212 114.821 15.645C114.525 16.1688 114.085 16.5936 113.503 16.9195C112.92 17.2454 112.233 17.4083 111.442 17.4083Z" stroke="black" stroke-width="0.4" mask="url(#path-3-outside-1_3562_9496)"/>
<path d="M119.304 9.02813V14.6673C119.304 15.1329 119.397 15.4646 119.584 15.6625C119.771 15.8487 120.095 15.9418 120.557 15.9418H121.661V17.2861H120.309C119.474 17.2861 118.848 17.0824 118.43 16.6751C118.012 16.2677 117.804 15.5984 117.804 14.6673V9.02813H116.633V7.71872H117.804V5.30941H119.304V7.71872H121.661V9.02813H119.304Z" stroke="black" stroke-width="0.4" mask="url(#path-3-outside-1_3562_9496)"/>
<path d="M122.918 12.4675C122.918 11.4898 123.105 10.6343 123.479 9.90107C123.852 9.15616 124.363 8.58002 125.012 8.17265C125.671 7.76528 126.402 7.56159 127.204 7.56159C127.995 7.56159 128.682 7.742 129.264 8.10281C129.847 8.46363 130.281 8.91756 130.567 9.4646V7.71872H132.083V17.2861H130.567V15.5053C130.27 16.064 129.825 16.5296 129.231 16.902C128.649 17.2629 127.968 17.4433 127.187 17.4433C126.385 17.4433 125.66 17.2338 125.012 16.8147C124.363 16.3957 123.852 15.808 123.479 15.0514C123.105 14.2949 122.918 13.4336 122.918 12.4675ZM130.567 12.485C130.567 11.7633 130.429 11.1348 130.155 10.5994C129.88 10.064 129.506 9.65664 129.034 9.3773C128.572 9.08632 128.061 8.94083 127.501 8.94083C126.94 8.94083 126.429 9.0805 125.968 9.35985C125.506 9.63919 125.138 10.0466 124.863 10.582C124.588 11.1174 124.451 11.7459 124.451 12.4675C124.451 13.2008 124.588 13.8409 124.863 14.388C125.138 14.9234 125.506 15.3366 125.968 15.6275C126.429 15.9069 126.94 16.0466 127.501 16.0466C128.061 16.0466 128.572 15.9069 129.034 15.6275C129.506 15.3366 129.88 14.9234 130.155 14.388C130.429 13.8409 130.567 13.2066 130.567 12.485Z" stroke="black" stroke-width="0.4" mask="url(#path-3-outside-1_3562_9496)"/>
<path d="M138.344 7.56159C139.124 7.56159 139.805 7.742 140.388 8.10281C140.981 8.46363 141.421 8.91756 141.706 9.4646V7.71872H143.223V17.4956C143.223 18.3686 143.047 19.1426 142.695 19.8177C142.344 20.5044 141.838 21.0398 141.179 21.4239C140.531 21.808 139.772 22 138.904 22C137.717 22 136.728 21.7032 135.937 21.1096C135.146 20.516 134.679 19.7071 134.536 18.6828H136.019C136.184 19.2648 136.525 19.7304 137.041 20.0795C137.558 20.4403 138.179 20.6208 138.904 20.6208C139.728 20.6208 140.399 20.3472 140.915 19.8002C141.443 19.2532 141.706 18.485 141.706 17.4956V15.4879C141.41 16.0466 140.97 16.5121 140.388 16.8846C139.805 17.257 139.124 17.4433 138.344 17.4433C137.541 17.4433 136.811 17.2338 136.151 16.8147C135.503 16.3957 134.992 15.808 134.618 15.0514C134.245 14.2949 134.058 13.4336 134.058 12.4675C134.058 11.4898 134.245 10.6343 134.618 9.90107C134.992 9.15616 135.503 8.58002 136.151 8.17265C136.811 7.76528 137.541 7.56159 138.344 7.56159ZM141.706 12.485C141.706 11.7633 141.569 11.1348 141.294 10.5994C141.02 10.064 140.646 9.65664 140.173 9.3773C139.712 9.08632 139.201 8.94083 138.64 8.94083C138.08 8.94083 137.569 9.0805 137.107 9.35985C136.646 9.63919 136.278 10.0466 136.003 10.582C135.728 11.1174 135.591 11.7459 135.591 12.4675C135.591 13.2008 135.728 13.8409 136.003 14.388C136.278 14.9234 136.646 15.3366 137.107 15.6275C137.569 15.9069 138.08 16.0466 138.64 16.0466C139.201 16.0466 139.712 15.9069 140.173 15.6275C140.646 15.3366 141.02 14.9234 141.294 14.388C141.569 13.8409 141.706 13.2066 141.706 12.485Z" stroke="black" stroke-width="0.4" mask="url(#path-3-outside-1_3562_9496)"/>
<path d="M154 12.1358C154 12.4384 153.984 12.7585 153.951 13.096H146.73C146.785 14.0388 147.088 14.7779 147.637 15.3133C148.198 15.8371 148.873 16.0989 149.665 16.0989C150.313 16.0989 150.852 15.9418 151.28 15.6275C151.72 15.3016 152.027 14.871 152.203 14.3356H153.819C153.577 15.2551 153.093 16.0058 152.368 16.5878C151.643 17.1581 150.742 17.4433 149.665 17.4433C148.807 17.4433 148.038 17.2396 147.357 16.8322C146.687 16.4248 146.159 15.8487 145.774 15.1038C145.39 14.3472 145.197 13.4743 145.197 12.485C145.197 11.4956 145.384 10.6285 145.758 9.88361C146.132 9.1387 146.654 8.56838 147.324 8.17265C148.005 7.76528 148.786 7.56159 149.665 7.56159C150.522 7.56159 151.28 7.75946 151.939 8.15519C152.599 8.55092 153.104 9.09796 153.456 9.79631C153.819 10.483 154 11.2629 154 12.1358ZM152.45 11.8041C152.45 11.1988 152.324 10.6809 152.071 10.2502C151.819 9.80795 151.472 9.47624 151.033 9.25509C150.604 9.02231 150.126 8.90592 149.599 8.90592C148.84 8.90592 148.192 9.16198 147.654 9.6741C147.126 10.1862 146.824 10.8962 146.747 11.8041H152.45Z" stroke="black" stroke-width="0.4" mask="url(#path-3-outside-1_3562_9496)"/>
</svg>
